<svg height="512" viewBox="0 0 128 128" width="512" xmlns="http://www.w3.org/2000/svg"><g id="Circle_Grid" data-name="Circle Grid"><circle cx="64" cy="64" fill="#2cbfae" r="64"/></g><g id="icon"><path d="m23 41.107v57.915a3.525 3.525 0 0 0 3.526 3.525h74.948a3.525 3.525 0 0 0 3.526-3.525v-57.915z" fill="#eeefee"/><path d="m101.474 25.453h-74.948a3.525 3.525 0 0 0 -3.526 3.525v13.8h82v-13.8a3.525 3.525 0 0 0 -3.526-3.525z" fill="#62667c"/><circle cx="72.981" cy="34.113" fill="#2cbfae" r="3.174"/><circle cx="84.205" cy="34.113" fill="#f6c863" r="3.174"/><circle cx="95.428" cy="34.113" fill="#ef5261" r="3.174"/><g fill="#dbd8dd"><path d="m27.933 48.746h32.602v21.04h-32.602z"/><path d="m27.933 76.535h32.602v20.04h-32.602z"/><path d="m65.692 66h24.625v3.786h-24.625z"/><path d="m65.692 57.373h34.375v3.786h-34.375z"/><path d="m65.692 92.789h24.625v3.786h-24.625z"/><path d="m65.692 84.162h34.375v3.786h-34.375z"/></g></g></svg>